HIERARCHY
ROOT Hips
{
    OFFSET 0.000000 0.000000 0.000000
    CHANNELS 6 Xposition Yposition Zposition Zrotation Xrotation Yrotation
    JOINT Spine
    {
        OFFSET -0.000000 7.236184 0.000000
        CHANNELS 3 Zrotation Xrotation Yrotation
        JOINT Spine1
        {
            OFFSET -0.000000 20.420147 0.000000
            CHANNELS 3 Zrotation Xrotation Yrotation
            JOINT Neck
            {
                OFFSET -0.000000 20.336288 1.848754
                CHANNELS 3 Zrotation Xrotation Yrotation
                JOINT Head
                {
                    OFFSET -0.000000 12.354461 -1.764923
                    CHANNELS 3 Zrotation Xrotation Yrotation
                    End Site
                    {
                        OFFSET -0.000000 22.061537 0.000000
                    }
                }
            }
            JOINT LeftShoulder
            {
                OFFSET 3.573296 18.396038 -0.314103
                CHANNELS 3 Zrotation Xrotation Yrotation
                JOINT LeftArm
                {
                    OFFSET 10.880760 0.000000 0.000000
                    CHANNELS 3 Zrotation Xrotation Yrotation
                    JOINT LeftForeArm
                    {
                        OFFSET 27.185530 0.000000 0.000000
                        CHANNELS 3 Zrotation Xrotation Yrotation
                        JOINT LeftHand
                        {
                            OFFSET 27.825975 0.000000 0.000000
                            CHANNELS 3 Zrotation Xrotation Yrotation
                            End Site
                            {
                                OFFSET 13.236923 0.000000 0.000000
                            }
                        }
                    }
                }
            }
            JOINT RightShoulder
            {
                OFFSET -3.474926 18.396038 -0.314103
                CHANNELS 3 Zrotation Xrotation Yrotation
                JOINT RightArm
                {
                    OFFSET -10.880760 0.000000 0.000000
                    CHANNELS 3 Zrotation Xrotation Yrotation
                    JOINT RightForeArm
                    {
                        OFFSET -27.185530 0.000000 0.000000
                        CHANNELS 3 Zrotation Xrotation Yrotation
                        JOINT RightHand
                        {
                            OFFSET -27.825975 0.000000 0.000000
                            CHANNELS 3 Zrotation Xrotation Yrotation
                            End Site
                            {
                                OFFSET -13.236923 0.000000 0.000000
                            }
                        }
                    }
                }
            }
        }
    }
    JOINT LeftUpLeg
    {
        OFFSET 8.824615 0.000000 0.000000
        CHANNELS 3 Zrotation Xrotation Yrotation
        JOINT LeftLeg
        {
            OFFSET -0.000000 -35.111282 0.000000
            CHANNELS 3 Zrotation Xrotation Yrotation
            JOINT LeftFoot
            {
                OFFSET -0.000000 -42.324711 0.000000
                CHANNELS 3 Zrotation Xrotation Yrotation
                JOINT LeftToeBase
                {
                    OFFSET -0.000000 -5.735999 13.236923
                    CHANNELS 3 Zrotation Xrotation Yrotation
                    End Site
                    {
                        OFFSET -0.000000 0.000000 3.529846
                    }
                }
            }
        }
    }
    JOINT RightUpLeg
    {
        OFFSET -8.824615 0.000000 0.000000
        CHANNELS 3 Zrotation Xrotation Yrotation
        JOINT RightLeg
        {
            OFFSET -0.000000 -35.111282 0.000000
            CHANNELS 3 Zrotation Xrotation Yrotation
            JOINT RightFoot
            {
                OFFSET -0.000000 -42.324711 0.000000
                CHANNELS 3 Zrotation Xrotation Yrotation
                JOINT RightToeBase
                {
                    OFFSET -0.000000 -5.735999 13.236923
                    CHANNELS 3 Zrotation Xrotation Yrotation
                    End Site
                    {
                        OFFSET -0.000000 0.000000 3.529846
                    }
                }
            }
        }
    }
}
MOTION
Frames:    14
Frame Time:    0.008333
-1.225559    84.683075    98.217842    1.275020    -7.622302    176.398560    -3.008892    -11.648339    -0.129792    5.644695    -2.412538    0.296448    5.590023    12.253512    2.962639    -0.246410    -18.065281    2.798166    3.886358    14.436314    2.521256    -56.944386    29.400377    -7.686716    -4.481143    6.262275    -4.793778    11.805176    6.427415    3.421181    6.041472    15.435959    -10.072174    50.866131    35.402237    27.104782    -2.010381    -11.949401    21.907005    -20.766584    -11.320031    -1.382525    9.267624    -10.230829    -2.885776    0.594992    18.924065    9.604067    -7.538338    -10.348269    -15.110921    -0.570049    -1.299615    0.633375    -13.756236    -15.734597    -5.329601    9.414803    25.591787    -4.457134    14.001342    4.357026    4.116106    -2.990776    -5.937536    3.262528    
-1.743888    84.785828    98.300392    1.272121    -7.684886    175.246292    -2.953681    -11.530888    -0.339095    5.996657    -2.361248    0.082347    5.891816    12.233313    3.553995    -0.228260    -18.120922    3.405876    3.948877    14.499847    2.224563    -56.673031    30.527269    -7.858853    -4.661966    6.404324    -5.045915    11.516429    6.561055    3.601084    6.170675    15.372124    -10.207521    51.255100    34.324684    26.741138    -1.997515    -12.418970    20.774155    -21.316469    -11.729602    -1.799354    9.030299    -9.791483    -2.461713    0.510926    18.476444    10.006204    -7.210270    -10.498322    -14.755051    -0.568186    -1.209960    0.631201    -14.616782    -17.467749    -5.528851    10.127072    27.442188    -4.882911    14.889317    6.305616    4.355359    -3.038949    -6.088640    3.315841    
-2.250241    84.887123    98.382912    1.270682    -7.741847    174.113846    -2.870751    -11.406974    -0.528878    6.311466    -2.324202    -0.114151    6.168637    12.256592    4.128597    -0.194860    -18.171022    4.003972    4.013108    14.543555    1.956673    -56.356552    31.698355    -8.078449    -4.807825    6.510430    -5.354795    11.264882    6.656013    3.765446    6.279049    15.304187    -10.317764    51.606018    33.303722    26.365152    -2.009737    -12.876059    19.747431    -21.821272    -12.110658    -2.251215    8.795575    -9.381906    -2.086403    0.416605    18.055450    10.463094    -6.881839    -10.614090    -14.422507    -0.575726    -1.140992    0.639497    -15.482204    -19.221767    -5.857391    10.838109    29.299677    -5.309983    15.781549    8.276476    4.487445    -3.048200    -6.125591    3.326123    
-2.749981    84.986221    98.465332    1.272871    -7.794313    172.986404    -2.760731    -11.276330    -0.700355    6.597214    -2.300362    -0.295253    6.424493    12.318543    4.692356    -0.144876    -18.215549    4.598973    4.077164    14.569059    1.713832    -55.982410    32.911514    -8.352588    -4.919107    6.586606    -5.715209    11.051483    6.718733    3.912751    6.370640    15.234280    -10.408189    51.917809    32.332672    25.972910    -2.040187    -13.318542    18.816303    -22.279659    -12.464890    -2.729213    8.562900    -8.992990    -1.749667    0.314888    17.653187    10.969423    -6.547852    -10.707254    -14.103158    -0.591001    -1.082962    0.656393    -16.358952    -21.011431    -6.324291    11.542967    31.184137    -5.733518    16.692017    10.252838    4.500700    -3.007594    -6.047518    3.281425    
-3.249113    85.083008    98.548012    1.281114    -7.843521    171.848160    -2.623951    -11.139229    -0.855489    6.863134    -2.286706    -0.462389    6.662086    12.416357    5.251631    -0.076533    -18.255651    5.197961    4.138080    14.577207    1.492421    -55.534412    34.164818    -8.693114    -4.995566    6.638369    -6.123473    10.880356    6.755156    4.040207    6.447775    15.163316    -10.482665    52.189468    31.402531    25.559071    -2.081512    -13.744144    17.970076    -22.690239    -12.793672    -3.225203    8.332061    -8.617464    -1.442003    0.207249    17.263065    11.522024    -6.203671    -10.785695    -13.787843    -0.612254    -1.030035    0.679932    -17.256393    -22.857578    -6.941725    12.239763    33.122723    -6.148977    17.635805    12.215766    4.378724    -2.905460    -5.852671    3.169056    
-3.729655    85.173103    98.626938    1.295380    -7.885231    170.739594    -2.469550    -11.000329    -0.988952    7.104828    -2.279754    -0.609599    6.872519    12.540722    5.785589    0.008983    -18.289810    5.778769    4.190549    14.568260    1.299207    -55.021408    35.392212    -9.095161    -5.033933    6.668736    -6.554088    10.765565    6.769882    4.139555    6.508427    15.095390    -10.541386    52.410065    30.546080    25.139494    -2.121591    -14.129200    17.234407    -23.033028    -13.082902    -3.703470    8.111479    -8.263418    -1.171941    0.099192    16.897400    12.093389    -5.862918    -10.851209    -13.484179    -0.636636    -0.981366    0.706946    -18.144804    -24.687281    -7.685336    12.898569    35.048218    -6.534795    18.576323    14.045978    4.119552    -2.739337    -5.556361    2.986530    
-4.213589    85.260323    98.705345    1.318092    -7.921473    169.610428    -2.293356    -10.855371    -1.108194    7.338207    -2.274288    -0.744441    7.066160    12.692708    6.318270    0.116246    -18.320694    6.367606    4.234304    14.544016    1.123459    -54.411217    36.625145    -9.584800    -5.037035    6.683546    -7.015452    10.710811    6.768754    4.208713    6.557389    15.028761    -10.589277    52.587223    29.721313    24.697277    -2.155074    -14.483863    16.567526    -23.320398    -13.343060    -4.172141    7.893648    -7.913177    -0.923012    -0.013413    16.539076    12.701276    -5.512420    -10.909893    -13.175793    -0.662756    -0.933688    0.735886    -19.065769    -26.581633    -8.581756    13.547772    37.051662    -6.907039    19.544779    15.778365    3.713981    -2.501726    -5.159116    2.725857    
-4.680689    85.340759    98.779251    1.348630    -7.948121    168.509293    -2.105244    -10.709826    -1.209279    7.555027    -2.266585    -0.862231    7.235301    12.860762    6.826909    0.242574    -18.345909    6.939507    4.266487    14.506443    0.971850    -53.723938    37.786083    -10.150584    -5.004690    6.685958    -7.476825    10.728990    6.756645    4.240150    6.593812    14.967300    -10.626239    52.713470    28.964113    24.253151    -2.174171    -14.786641    15.988455    -23.535837    -13.561648    -4.595992    7.687764    -7.578084    -0.705045    -0.125473    16.203278    13.316047    -5.170055    -10.960530    -12.875158    -0.687174    -0.889071    0.762937    -19.987968    -28.456226    -9.586995    14.167766    39.051624    -7.258094    20.474827    17.291946    3.197072    -2.209098    -4.700213    2.405373    
-5.137888    85.415718    98.849365    1.386219    -7.964161    167.422913    -1.906295    -10.561847    -1.295804    7.758926    -2.253171    -0.966797    7.384501    13.042746    7.318928    0.389572    -18.366526    7.502348    4.287628    14.457806    0.840679    -52.950691    38.866344    -10.803381    -4.938783    6.679336    -7.932250    10.825453    6.737362    4.230280    6.620818    14.911066    -10.655572    52.791607    28.263872    23.806105    -2.176964    -15.039009    15.474113    -23.684439    -13.741814    -4.972589    7.489617    -7.251764    -0.512351    -0.237993    15.885611    13.939445    -4.834862    -11.004679    -12.577553    -0.708024    -0.847332    0.786025    -20.932596    -30.332104    -10.700264    14.780319    41.074955    -7.606497    21.343632    18.577459    2.599752    -1.875298    -4.205746    2.040429    
-5.576379    85.483826    98.914070    1.427717    -7.968415    166.375763    -1.704168    -10.414094    -1.368495    7.944904    -2.233757    -1.058082    7.513617    13.231434    7.784918    0.552625    -18.381639    8.044432    4.298441    14.401237    0.730339    -52.115299    39.820854    -11.526473    -4.843635    6.666968    -8.360653    11.001567    6.714886    4.176878    6.640007    14.862230    -10.679175    52.823509    27.634192    23.370661    -2.162694    -15.234707    15.018502    -23.768822    -13.880312    -5.290195    7.300446    -6.940542    -0.345800    -0.347847    15.593364    14.552584    -4.517269    -11.041959    -12.289439    -0.722936    -0.810187    0.802525    -21.890808    -32.166451    -11.884148    15.391188    43.077400    -7.963513    22.099279    19.596970    1.977950    -1.528160    -3.716980    1.661537    
-6.009818    85.547302    98.975159    1.471518    -7.960195    165.338898    -1.496554    -10.261194    -1.431912    8.117635    -2.209251    -1.140733    7.628548    13.431140    8.239456    0.735572    -18.391508    8.582071    4.300583    14.336750    0.634461    -51.205441    40.656467    -12.334098    -4.719244    6.650641    -8.764211    11.266568    6.690873    4.076797    6.652869    14.820930    -10.699593    52.814484    27.056145    22.939104    -2.131465    -15.379938    14.591431    -23.799795    -13.981835    -5.558525    7.111183    -6.635756    -0.196718    -0.457269    15.319356    15.167253    -4.210954    -11.074189    -12.002833    -0.731286    -0.776367    0.811745    -22.903761    -34.010433    -13.163317    16.040390    45.115646    -8.361983    22.738472    20.384497    1.351754    -1.176580    -3.244422    1.278396    
-6.425419    85.604424    99.030647    1.514209    -7.938873    164.346268    -1.292074    -10.106449    -1.486395    8.269862    -2.182973    -1.214307    7.728732    13.635014    8.669630    0.931029    -18.394676    9.099132    4.296728    14.268326    0.553078    -50.266052    41.329453    -13.191793    -4.572659    6.632654    -9.121652    11.615718    6.667832    3.934127    6.659994    14.789859    -10.717713    52.770531    26.546263    22.529406    -2.084981    -15.471903    14.189842    -23.786753    -14.044037    -5.773221    6.924783    -6.347764    -0.063763    -0.561266    15.074262    15.757987    -3.928121    -11.101392    -11.728708    -0.731980    -0.747049    0.812471    -23.952881    -35.804359    -14.491286    16.732279    47.124531    -8.814705    23.229292    20.934113    0.766722    -0.844852    -2.819386    0.917401    
-6.828899    85.656281    99.081139    1.555270    -7.903661    163.387238    -1.089015    -9.947412    -1.535395    8.400967    -2.155951    -1.282221    7.819442    13.844776    9.082554    1.138888    -18.389944    9.602811    4.290584    14.196194    0.481240    -49.307919    41.838329    -14.094220    -4.406000    6.613923    -9.431867    12.052597    6.646281    3.751438    6.663351    14.769145    -10.733612    52.698223    26.093044    22.139698    -2.024263    -15.516571    13.793024    -23.743019    -14.070253    -5.945419    6.737415    -6.073833    0.063293    -0.659767    14.857311    16.326521    -3.666824    -11.125361    -11.468164    -0.725532    -0.721547    0.805276    -25.061365    -37.567249    -15.877468    17.500546    49.125580    -9.351375    23.583326    21.286762    0.227284    -0.536311    -2.443892    0.582052    
-7.219595    85.702827    99.126328    1.594504    -7.853888    162.466110    -0.887887    -9.784566    -1.581146    8.508533    -2.128290    -1.346823    7.903529    14.059598    9.478790    1.356501    -18.377016    10.092737    4.285646    14.121631    0.415817    -48.356163    42.173767    -15.023685    -4.223396    6.595066    -9.690620    12.574289    6.626312    3.534836    6.664841    14.759683    -10.747027    52.602581    25.695072    21.774673    -1.952068    -15.521262    13.389175    -23.680582    -14.064973    -6.085317    6.548790    -5.816055    0.195186    -0.750659    14.673054    16.865660    -3.428613    -11.147919    -11.228044    -0.713338    -0.700980    0.791713    -26.237749    -39.291481    -17.314293    18.374149    51.111263    -9.995845    23.812752    21.473269    -0.263349    -0.255605    -2.121443    0.277279    
